<svg width="236" height="24" viewBox="0 0 236 24" fill="none" xmlns="http://www.w3.org/2000/svg">
<path d="M8.476 0.271999C10.14 0.271999 11.396 0.631999 12.244 1.352C13.092 2.072 13.516 3.032 13.516 4.232C13.516 4.424 13.484 4.744 13.42 5.192C13.212 6.344 12.7 7.36 11.884 8.24C11.068 9.12 9.972 9.704 8.596 9.992L11.548 17H8.932L6.148 10.16H3.532L2.308 17H0.124L3.1 0.271999H8.476ZM11.164 5.192C11.212 4.904 11.236 4.64 11.236 4.4C11.236 3.632 10.98 3.04 10.468 2.624C9.972 2.208 9.204 2 8.164 2H4.972L3.844 8.408H7.06C8.244 8.408 9.18 8.12 9.868 7.544C10.556 6.952 10.988 6.168 11.164 5.192ZM22.7656 3.632C23.8696 3.632 24.8216 3.848 25.6216 4.28C26.4376 4.696 27.0536 5.288 27.4696 6.056C27.9016 6.808 28.1176 7.672 28.1176 8.648C28.1176 8.984 28.0776 9.392 27.9976 9.872C27.9336 10.288 27.8296 10.72 27.6856 11.168H17.1736C17.1416 11.488 17.1256 11.72 17.1256 11.864C17.1256 12.968 17.4536 13.832 18.1096 14.456C18.7816 15.064 19.6536 15.368 20.7256 15.368C21.6696 15.368 22.4936 15.152 23.1976 14.72C23.9176 14.272 24.4616 13.68 24.8296 12.944H27.1816C26.6056 14.208 25.7176 15.24 24.5176 16.04C23.3336 16.824 21.9576 17.216 20.3896 17.216C18.7416 17.216 17.4136 16.744 16.4056 15.8C15.4136 14.84 14.9176 13.536 14.9176 11.888C14.9176 11.424 14.9656 10.928 15.0616 10.4C15.3016 9.04 15.7896 7.848 16.5256 6.824C17.2616 5.8 18.1656 5.016 19.2376 4.472C20.3256 3.912 21.5016 3.632 22.7656 3.632ZM25.7896 9.584C25.8376 9.264 25.8616 8.968 25.8616 8.696C25.8616 7.672 25.5336 6.88 24.8776 6.32C24.2376 5.76 23.3976 5.48 22.3576 5.48C21.2376 5.48 20.2216 5.848 19.3096 6.584C18.3976 7.304 17.7816 8.304 17.4616 9.584H25.7896ZM32.9204 13.4C32.8724 13.64 32.8484 13.848 32.8484 14.024C32.8484 14.424 32.9684 14.712 33.2084 14.888C33.4644 15.064 33.8724 15.152 34.4324 15.152H36.0404L35.7044 17H33.7364C32.6964 17 31.9124 16.8 31.3844 16.4C30.8724 16 30.6164 15.344 30.6164 14.432C30.6164 14.08 30.6484 13.736 30.7124 13.4L32.0804 5.648H30.4004L30.7124 3.848H32.4164L32.9924 0.535999H35.2004L34.6244 3.848H38.0324L37.7204 5.648H34.2884L32.9204 13.4ZM52.3426 3.848L50.0146 17H47.8306L48.1666 15.08C47.6386 15.752 46.9666 16.272 46.1506 16.64C45.3346 17.008 44.4866 17.192 43.6066 17.192C42.2306 17.192 41.1266 16.824 40.2946 16.088C39.4786 15.336 39.0706 14.264 39.0706 12.872C39.0706 12.52 39.1106 12.08 39.1906 11.552L40.5586 3.848H42.7186L41.4226 11.264C41.3586 11.6 41.3266 11.952 41.3266 12.32C41.3266 13.296 41.5906 14.04 42.1186 14.552C42.6626 15.048 43.4146 15.296 44.3746 15.296C45.5266 15.296 46.5026 14.936 47.3026 14.216C48.1186 13.496 48.6386 12.448 48.8626 11.072V11.144L50.1586 3.848H52.3426ZM57.7821 6.344C58.3101 5.48 58.9741 4.808 59.7741 4.328C60.5741 3.848 61.4861 3.608 62.5101 3.608L62.1021 5.864H61.5261C60.3901 5.864 59.4381 6.168 58.6701 6.776C57.9181 7.384 57.4141 8.408 57.1581 9.848L55.8861 17H53.7021L56.0301 3.848H58.2141L57.7821 6.344ZM71.4393 3.608C72.7993 3.608 73.8873 3.976 74.7032 4.712C75.5193 5.432 75.9273 6.488 75.9273 7.88C75.9273 8.392 75.8873 8.848 75.8073 9.248L74.4393 17H72.2793L73.5993 9.56C73.6633 9.224 73.6953 8.872 73.6953 8.504C73.6953 7.528 73.4233 6.784 72.8793 6.272C72.3513 5.76 71.6073 5.504 70.6473 5.504C69.4953 5.504 68.5113 5.864 67.6953 6.584C66.8953 7.304 66.3753 8.352 66.1353 9.728V9.68L64.8393 17H62.6553L64.9833 3.848H67.1673L66.8313 5.744C67.3753 5.056 68.0553 4.528 68.8713 4.16C69.6873 3.792 70.5433 3.608 71.4393 3.608ZM88.4673 13.4C88.4193 13.64 88.3953 13.848 88.3953 14.024C88.3953 14.424 88.5153 14.712 88.7553 14.888C89.0113 15.064 89.4193 15.152 89.9793 15.152H91.5872L91.2513 17H89.2833C88.2433 17 87.4593 16.8 86.9313 16.4C86.4193 16 86.1633 15.344 86.1633 14.432C86.1633 14.08 86.1953 13.736 86.2593 13.4L87.6273 5.648H85.9473L86.2593 3.848H87.9633L88.5393 0.535999H90.7473L90.1713 3.848H93.5793L93.2673 5.648H89.8353L88.4673 13.4ZM99.6814 17.216C98.5774 17.216 97.6014 16.992 96.7534 16.544C95.9214 16.08 95.2734 15.44 94.8094 14.624C94.3454 13.792 94.1134 12.832 94.1134 11.744C94.1134 10.256 94.4574 8.896 95.1454 7.664C95.8334 6.416 96.7774 5.432 97.9774 4.712C99.1934 3.992 100.545 3.632 102.033 3.632C103.137 3.632 104.113 3.864 104.961 4.328C105.825 4.776 106.489 5.416 106.953 6.248C107.433 7.064 107.673 8.024 107.673 9.128C107.673 10.616 107.321 11.976 106.617 13.208C105.913 14.44 104.953 15.416 103.737 16.136C102.521 16.856 101.169 17.216 99.6814 17.216ZM99.9454 15.368C100.985 15.368 101.921 15.088 102.753 14.528C103.585 13.952 104.233 13.2 104.697 12.272C105.177 11.328 105.417 10.32 105.417 9.248C105.417 8.032 105.065 7.104 104.361 6.464C103.657 5.808 102.777 5.48 101.721 5.48C100.681 5.48 99.7534 5.768 98.9374 6.344C98.1214 6.904 97.4894 7.656 97.0414 8.6C96.5934 9.544 96.3694 10.56 96.3694 11.648C96.3694 12.832 96.7054 13.752 97.3774 14.408C98.0494 15.048 98.9054 15.368 99.9454 15.368ZM121.557 0.271999L118.581 17H116.397L119.373 0.271999H121.557ZM135.552 0.271999L135.24 1.976H130.68L128.04 17H125.856L128.496 1.976H123.936L124.248 0.271999H135.552ZM170.067 0.391999L167.139 17H164.955L167.139 4.616L159.435 17H157.899L154.539 4.664L152.355 17H150.171L153.123 0.391999H155.475L159.195 14.12L167.739 0.391999H170.067ZM176.555 17.168C175.003 17.168 173.739 16.8 172.763 16.064C171.803 15.312 171.323 14.312 171.323 13.064C171.323 12.824 171.331 12.648 171.347 12.536H173.507C173.459 13.32 173.699 13.992 174.227 14.552C174.755 15.112 175.563 15.392 176.651 15.392C177.739 15.392 178.603 15.144 179.243 14.648C179.883 14.152 180.203 13.456 180.203 12.56C180.203 12.016 180.043 11.56 179.723 11.192C179.419 10.808 179.035 10.496 178.571 10.256C178.123 10 177.507 9.72 176.723 9.416C175.763 9.032 174.987 8.672 174.395 8.336C173.819 8 173.331 7.544 172.931 6.968C172.531 6.392 172.347 5.664 172.379 4.784C172.379 3.856 172.627 3.032 173.123 2.312C173.619 1.592 174.299 1.04 175.163 0.655999C176.043 0.255999 177.043 0.0559993 178.163 0.0559993C179.251 0.0559993 180.187 0.239999 180.971 0.607999C181.771 0.975999 182.371 1.488 182.771 2.144C183.171 2.8 183.347 3.536 183.299 4.352H181.019C181.051 3.936 180.955 3.536 180.731 3.152C180.523 2.768 180.187 2.456 179.723 2.216C179.275 1.976 178.715 1.856 178.043 1.856C177.003 1.856 176.163 2.104 175.523 2.6C174.899 3.08 174.587 3.744 174.587 4.592C174.587 5.088 174.731 5.52 175.019 5.888C175.323 6.24 175.699 6.544 176.147 6.8C176.595 7.04 177.211 7.328 177.995 7.664C178.939 8.064 179.707 8.44 180.299 8.792C180.907 9.128 181.419 9.584 181.835 10.16C182.251 10.736 182.459 11.456 182.459 12.32C182.459 13.248 182.219 14.08 181.739 14.816C181.259 15.536 180.571 16.112 179.675 16.544C178.779 16.96 177.739 17.168 176.555 17.168ZM205.232 5.168C204.992 6.56 204.312 7.72 203.192 8.648C202.072 9.56 200.544 10.016 198.608 10.016H195.392L194.144 17H191.96L194.936 0.271999H200.336C202 0.271999 203.248 0.631999 204.08 1.352C204.912 2.056 205.328 3 205.328 4.184C205.328 4.392 205.296 4.72 205.232 5.168ZM198.92 8.288C200.12 8.288 201.056 8.016 201.728 7.472C202.4 6.912 202.824 6.144 203 5.168C203.048 4.88 203.072 4.616 203.072 4.376C203.072 2.792 202.056 2 200.024 2H196.808L195.704 8.288H198.92ZM206.194 10.376C206.434 9.032 206.914 7.856 207.634 6.848C208.37 5.824 209.258 5.032 210.298 4.472C211.354 3.912 212.474 3.632 213.658 3.632C214.81 3.632 215.762 3.88 216.514 4.376C217.266 4.872 217.786 5.496 218.074 6.248L218.506 3.848H220.714L218.386 17H216.178L216.634 14.552C216.058 15.32 215.298 15.96 214.354 16.472C213.41 16.968 212.37 17.216 211.234 17.216C210.21 17.216 209.306 17 208.522 16.568C207.738 16.12 207.13 15.488 206.698 14.672C206.266 13.856 206.05 12.912 206.05 11.84C206.05 11.36 206.098 10.872 206.194 10.376ZM217.354 10.4C217.418 10.064 217.45 9.704 217.45 9.32C217.45 8.152 217.098 7.232 216.394 6.56C215.706 5.872 214.826 5.528 213.754 5.528C212.938 5.528 212.154 5.72 211.402 6.104C210.666 6.488 210.034 7.048 209.506 7.784C208.978 8.52 208.626 9.384 208.45 10.376C208.386 10.712 208.354 11.08 208.354 11.48C208.354 12.664 208.698 13.6 209.386 14.288C210.074 14.96 210.954 15.296 212.026 15.296C212.842 15.296 213.618 15.104 214.354 14.72C215.106 14.32 215.746 13.752 216.274 13.016C216.818 12.264 217.178 11.392 217.354 10.4ZM225.269 3.848L227.501 14.456L233.477 3.848H235.733L224.405 23.192H222.125L225.845 16.856L222.845 3.848H225.269Z" fill="#4186FF"/>
<path d="M143.328 3.632C144.432 3.632 145.384 3.848 146.184 4.28C147 4.696 147.616 5.288 148.032 6.056C148.464 6.808 148.68 7.672 148.68 8.648C148.68 8.984 148.64 9.392 148.56 9.872C148.496 10.288 148.392 10.72 148.248 11.168H137.736C137.704 11.488 137.688 11.72 137.688 11.864C137.688 12.968 138.016 13.832 138.672 14.456C139.344 15.064 140.216 15.368 141.288 15.368C142.232 15.368 143.056 15.152 143.76 14.72C144.48 14.272 145.024 13.68 145.392 12.944H147.744C147.168 14.208 146.28 15.24 145.08 16.04C143.896 16.824 142.52 17.216 140.952 17.216C139.304 17.216 137.976 16.744 136.968 15.8C135.976 14.84 135.48 13.536 135.48 11.888C135.48 11.424 135.528 10.928 135.624 10.4C135.864 9.04 136.352 7.848 137.088 6.824C137.824 5.8 138.728 5.016 139.8 4.472C140.888 3.912 142.064 3.632 143.328 3.632ZM146.352 9.584C146.4 9.264 146.424 8.968 146.424 8.696C146.424 7.672 146.096 6.88 145.44 6.32C144.8 5.76 143.96 5.48 142.92 5.48C141.8 5.48 140.784 5.848 139.872 6.584C138.96 7.304 138.344 8.304 138.024 9.584H146.352Z" fill="#FB1C1C"/>
</svg>
